<svg width="124" height="32" viewBox="0 0 124 32" fill="none" xmlns="http://www.w3.org/2000/svg">
<rect x="93" y="1" width="30" height="30" rx="15" stroke="#5F2EEA" stroke-width="2"/>
<rect x="1" y="1" width="30" height="30" rx="15" stroke="#5F2EEA" stroke-width="2"/>
<path d="M12 15C11.4477 15 11 15.4477 11 16C11 16.5523 11.4477 17 12 17V15ZM20 17C20.5523 17 21 16.5523 21 16C21 15.4477 20.5523 15 20 15V17ZM12 17H20V15H12V17Z" fill="#5F2EEA"/>
<path d="M109 12C109 11.4477 108.552 11 108 11C107.448 11 107 11.4477 107 12L109 12ZM107 20C107 20.5523 107.448 21 108 21C108.552 21 109 20.5523 109 20L107 20ZM107 12L107 20L109 20L109 12L107 12Z" fill="#5F2EEA"/>
<path d="M104 15C103.448 15 103 15.4477 103 16C103 16.5523 103.448 17 104 17V15ZM112 17C112.552 17 113 16.5523 113 16C113 15.4477 112.552 15 112 15V17ZM104 17H112V15H104V17Z" fill="#5F2EEA"/>
<path d="M58.1776 11.4V9.336H62.0336V21H59.7296V11.4H58.1776Z" fill="#14142B"/>
</svg>
